<svg width="593" height="271" viewBox="0 0 593 271" fill="none" xmlns="http://www.w3.org/2000/svg">
<path opacity="0.15" d="M485.654 196.135C476.24 193.613 468.461 189.475 462.317 183.722C456.228 177.984 452.089 171.097 449.902 163.06C447.769 155.038 447.956 146.347 450.464 136.987L470.33 62.8474L490.407 68.0511L470.629 141.862C469.441 146.296 469.117 150.462 469.656 154.361C470.25 158.275 471.503 161.808 473.416 164.961C475.343 168.058 477.808 170.684 480.809 172.838C483.811 174.991 487.09 176.545 490.648 177.498C494.316 178.481 497.96 178.782 501.581 178.403C505.272 177.984 508.727 176.915 511.945 175.196C515.177 173.423 518.002 170.982 520.418 167.875C522.835 164.768 524.63 161.025 525.803 156.646L545.581 82.8348L565.614 88.2028L545.704 162.507C543.196 171.866 538.986 179.479 533.073 185.346C527.214 191.226 520.187 195.122 511.99 197.032C503.847 198.957 495.069 198.658 485.654 196.135Z" fill="#1C71FF"/>
<path opacity="0.15" d="M363.341 177.964L331.661 59.7347L380.513 46.645C381.662 46.337 383.155 45.9957 384.991 45.6212C386.812 45.1919 388.525 44.9088 390.131 44.7718C397.252 43.9785 403.498 44.7394 408.87 47.0545C414.297 49.355 418.797 52.9012 422.369 57.6934C425.981 62.4161 428.66 68.0342 430.405 74.5478C432.135 81.0066 432.625 87.2114 431.873 93.1622C431.106 99.0582 428.948 104.359 425.398 109.065C421.903 113.756 416.901 117.531 410.393 120.389C408.919 121.019 407.266 121.638 405.434 122.246C403.657 122.839 402.221 123.283 401.127 123.576L372.062 131.364L383.128 172.662L363.341 177.964ZM367.112 112.891L395.356 105.323C396.45 105.029 397.667 104.645 399.006 104.169C400.345 103.692 401.546 103.136 402.607 102.5C405.671 100.799 407.855 98.6589 409.159 96.0803C410.517 93.487 411.228 90.7741 411.29 87.9414C411.407 85.0941 411.128 82.4115 410.454 79.8937C409.779 77.3758 408.679 74.9132 407.154 72.5059C405.669 70.0292 403.69 68.0075 401.217 66.4409C398.799 64.8596 395.837 64.0984 392.333 64.1574C391.096 64.1369 389.786 64.2827 388.403 64.5946C387.005 64.8518 385.759 65.1271 384.664 65.4204L356.42 72.9882L367.112 112.891Z" fill="#1C71FF"/>
<path opacity="0.15" d="M236.361 196.791C225.76 190.671 218.013 183.123 213.119 174.147C208.253 165.121 206.178 155.286 206.893 144.641C207.657 134.024 211.198 123.244 217.517 112.3C223.835 101.356 231.4 92.8992 240.213 86.9289C249.074 80.9869 258.616 77.8911 268.837 77.6414C279.086 77.3426 289.51 80.2532 300.111 86.3732C310.711 92.4932 318.444 100.066 323.31 109.091C328.253 118.096 330.342 127.907 329.578 138.524C328.863 149.169 325.346 159.964 319.028 170.907C312.71 181.851 305.12 190.294 296.258 196.236C287.446 202.206 277.89 205.326 267.592 205.597C257.371 205.847 246.961 202.911 236.361 196.791ZM246.008 180.081C253.096 184.239 259.916 186.083 266.469 185.613C273.07 185.171 279.221 182.735 284.92 178.304C290.668 173.902 295.78 167.824 300.257 160.07C304.733 152.316 307.413 144.899 308.295 137.818C309.254 130.716 308.275 124.196 305.356 118.258C302.487 112.348 297.522 107.29 290.463 103.083C283.376 98.9258 276.555 97.082 270.002 97.5519C263.45 98.0217 257.299 100.458 251.551 104.86C245.852 109.291 240.764 115.384 236.288 123.137C231.811 130.891 229.093 138.319 228.134 145.421C227.203 152.473 228.172 158.955 231.041 164.864C233.96 170.803 238.949 175.875 246.008 180.081Z" fill="#1C71FF"/>
<path opacity="0.15" d="M174.807 156.231C166.152 164.886 156.856 170.416 146.919 172.82C136.942 175.184 126.904 174.643 116.807 171.197C106.75 167.711 97.2531 161.5 88.3176 152.565C79.3822 143.629 73.1714 134.133 69.6854 124.075C66.2394 113.978 65.7185 103.96 68.1227 94.0232C70.4868 84.046 75.9963 74.7298 84.6513 66.0749C94.6286 56.0976 105.447 50.2875 117.107 48.6447C128.728 46.9618 140.107 49.0053 151.247 54.7753L140.668 73.4075C133.336 69.4407 126.063 67.898 118.851 68.7795C111.598 69.621 104.746 73.2673 98.2949 79.7185C92.4849 85.5285 88.9387 91.6792 87.6565 98.1704C86.4143 104.622 87.1757 111.193 89.9404 117.885C92.7052 124.496 97.2331 130.987 103.524 137.358C109.855 143.689 116.346 148.257 122.998 151.062C129.649 153.787 136.221 154.508 142.712 153.226C149.203 151.944 155.354 148.397 161.164 142.587C167.615 136.136 171.261 129.284 172.103 122.032C172.944 114.779 171.402 107.507 167.475 100.214L186.107 89.6356C191.877 100.775 193.941 112.175 192.298 123.835C190.615 135.455 184.785 146.254 174.807 156.231Z" fill="#1C71FF"/>
</svg>
